<svg xmlns="http://www.w3.org/2000/svg" viewBox="0 0 430 88" role="img" aria-labelledby="title desc">
  <title id="title">Sonnenhof der Koboldtiere</title>
  <desc id="desc">Bildmarke mit Hund, Katze und Hase vor der Sonne und dem Schriftzug Sonnenhof der Koboldtiere.</desc>
  <g transform="translate(4 4) scale(1)">
    <circle cx="40" cy="40" r="37" fill="#173f32"/>
    <circle cx="40" cy="40" r="36" fill="none" stroke="#f5c95b" stroke-width="2"/>
    <circle cx="40" cy="20" r="8" fill="#f5c95b"/>
    <path d="M13 37c-3-3-4-7-1-9 4-3 7 1 8 6 3-4 6-5 9-2v11c0 7-4 11-10 11-7 0-10-5-9-11z" fill="#fffdf8"/>
    <path d="m31 37 1-8 6 4h3l7-4 1 9c4 4 3 11-1 15-5 5-13 4-17 0-4-4-4-11 0-16z" fill="#fffdf8"/>
    <path d="M53 36c-3-11-3-19 1-20 4-1 6 8 6 18 3-9 7-12 9-8 2 3-1 10-4 14 4 4 4 10 1 14-4 5-12 4-16 0-4-5-2-13 3-18z" fill="#fffdf8"/>
    <path d="M12 59c9 3 47 3 56 0" fill="none" stroke="#f5c95b" stroke-width="2.5" stroke-linecap="round"/>
  </g>
  <text x="94" y="38" fill="#315c43" font-family="Georgia, 'Times New Roman', serif" font-size="22">Sonnenhof der</text>
  <text x="92" y="72" fill="#173f32" font-family="Georgia, 'Times New Roman', serif" font-size="34" font-weight="700">Koboldtiere</text>
</svg>
